# xmcd
#
# Track frame offsets:
#	150
#	14694
#	31525
#	45414
#	60094
#	73628
#	88631
#	99990
#	115348
#	125768
#	143154
#	163923
#
# Disc length: 2374 seconds
#
# Revision: 1
# Processed by: cddbd v1.5.2PL0 Copyright (c) Steve Scherf et al.
# Submitted via: audiograbber 1.83.01
#
DISCID=9809440c
DTITLE=WALDICK SORIANO - INTERPRETA ROBERTO CARLOS
DYEAR=1900
DGENRE=
TTITLE0=NÃO SE ESQUEÇA DE MIM
TTITLE1=PROPOSTA
TTITLE2=CAFÉ DA MANHÃ
TTITLE3=AMADA AMANTE
TTITLE4=ESCREVA UMA CARTA, MEU AMOR
TTITLE5=COMO VAI VOCÊ-OS SEUS BOTÕES-OUTRA VEZ
TTITLE6=ESQUEÇA
TTITLE7=A DITÂNCIA
TTITLE8=NÃO QUERO VER VOCÊ TRISTE
TTITLE9=CAVALGADA
TTITLE10=EU QUERO APENAS
TTITLE11=DESABAFO-SEU CORPO-FALANDO SÉRIO
EXTD=
EXTT0=
EXTT1=
EXTT2=
EXTT3=
EXTT4=
EXTT5=
EXTT6=
EXTT7=
EXTT8=
EXTT9=
EXTT10=
EXTT11=
PLAYORDER=
